# xmcd
#
# Track frame offsets: 
#        150
#        8036
#        18179
#        30287
#        43677
#        49794
#        58433
#        69803
#        79431
#        87987
#        105403
#
# Disc length: 1522 seconds
#
# Revision: 0
# Processed by: cddbd v1.5.2PL0 Copyright (c) Steve Scherf et al.
# Submitted via: ExactAudioCopy v0.99pb5
#
DISCID=7f05f00b
DTITLE=Rusty Rogers - Tribute to the American Cowboy
DYEAR=1992
DGENRE=Western
TTITLE0=Intro
TTITLE1=When Payday Rolls Around
TTITLE2=I'm Thinking Tonight of My Blue Eyes
TTITLE3=Yellow Roses
TTITLE4=Happy Cowboy
TTITLE5=Cowboy's Sweetheart
TTITLE6=Song of the Bandit
TTITLE7=Mountain Dew
TTITLE8=Guitar Boogie Breakdown
TTITLE9=Old Shep
TTITLE10=Skyball Paint
EXTD=
EXTT0=
EXTT1=
EXTT2=
EXTT3=
EXTT4=
EXTT5=
EXTT6=
EXTT7=
EXTT8=
EXTT9=
EXTT10=
PLAYORDER=
